<?xml version="1.0" standalone="no"?>
<!DOCTYPE svg PUBLIC "-//W3C//DTD SVG 20010904//EN"
 "http://www.w3.org/TR/2001/REC-SVG-20010904/DTD/svg10.dtd">
<svg version="1.0" xmlns="http://www.w3.org/2000/svg"
 width="626.000000pt" height="326.000000pt" viewBox="0 0 626.000000 326.000000"
 preserveAspectRatio="xMidYMid meet">

<g transform="translate(0.000000,326.000000) scale(0.100000,-0.100000)"
fill="#000000" stroke="none">
<path d="M2081 3084 c-14 -17 -21 -41 -21 -68 0 -61 11 -71 42 -39 32 34 41
65 33 103 -8 37 -27 38 -54 4z"/>
<path d="M3105 3013 c-360 -31 -711 -170 -977 -386 -29 -24 -58 -46 -63 -49
-7 -4 -9 35 -7 121 3 81 -1 155 -9 202 l-13 74 -7 -115 c-7 -126 -26 -217 -70
-323 -35 -84 -56 -119 -130 -217 -165 -218 -293 -505 -348 -775 -101 -505 -15
-1001 248 -1420 l50 -80 -47 -22 -47 -22 63 0 c34 -1 118 10 185 24 412 83
874 122 1332 112 385 -9 687 -39 1000 -99 88 -17 198 -33 245 -34 l85 -4 -85
34 c-88 36 -100 49 -79 88 12 22 11 22 -7 8 -10 -8 -22 -19 -26 -25 -16 -22
-7 53 10 87 14 26 15 35 5 31 -7 -3 -13 -8 -13 -12 0 -3 -7 -15 -15 -25 -14
-18 -15 -18 -35 5 -20 22 -20 22 -11 2 12 -24 15 -74 3 -58 -4 6 -18 19 -31
30 l-23 20 21 -35 c11 -19 21 -38 21 -41 0 -3 -47 8 -104 25 l-104 31 5 31 c7
43 -24 74 -73 74 l-37 0 7 193 c15 394 18 422 63 527 53 124 62 158 77 303
l12 122 -47 30 c-90 57 -243 206 -311 304 l-17 23 -43 -35 c-79 -64 -193 -112
-328 -137 -30 -6 -154 -22 -275 -35 -306 -34 -457 -69 -552 -125 -19 -11 -38
-20 -42 -20 -11 0 -48 79 -62 133 -6 26 -9 80 -7 120 8 131 85 239 204 288 30
13 54 27 54 31 0 5 -21 6 -47 3 -210 -30 -372 -260 -336 -478 11 -63 54 -167
78 -187 9 -7 6 -22 -11 -57 -39 -79 -47 -151 -33 -285 11 -105 10 -122 -5
-161 -16 -41 -90 -125 -159 -178 -38 -29 -44 -48 -57 -176 -18 -173 -19 -177
-37 -161 -15 12 -15 11 -5 -9 7 -12 12 -32 12 -44 0 -21 -1 -21 -21 5 -29 37
-33 28 -9 -19 34 -67 29 -81 -42 -102 -35 -11 -66 -18 -69 -17 -4 2 -36 48
-72 101 -144 216 -181 329 -181 553 0 159 11 221 64 359 41 105 115 218 209
315 81 85 67 82 -56 -11 -119 -90 -205 -201 -278 -356 l-43 -92 -7 59 c-11 86
1 357 19 461 132 720 660 1245 1401 1391 141 28 463 26 613 -4 323 -65 609
-208 853 -426 25 -23 11 -7 -30 34 -352 351 -895 547 -1396 503z m69 -1676
c48 12 69 12 101 -1 21 -9 52 -16 70 -16 24 0 34 -6 43 -25 18 -40 14 -63 -19
-112 -29 -41 -31 -50 -26 -103 3 -38 16 -81 37 -122 21 -40 34 -84 38 -120 2
-32 7 -58 10 -58 2 0 50 44 106 98 118 113 153 133 191 108 35 -23 32 -53 -9
-77 -29 -17 -95 -92 -121 -138 -21 -36 119 17 213 81 24 17 45 28 47 26 2 -1
-12 -26 -31 -54 -29 -43 -33 -56 -25 -77 6 -14 24 -93 41 -175 31 -153 38
-220 20 -192 -7 11 -10 5 -11 -25 l-1 -40 -13 35 -13 35 -3 -40 -4 -40 -23 43
c-29 54 -37 49 -22 -10 7 -25 10 -58 8 -74 l-4 -29 -17 37 c-10 21 -17 64 -18
100 l-1 63 -17 -50 -18 -50 -16 35 -15 35 -2 -65 -1 -65 -19 37 c-28 52 -36
53 -31 5 l3 -42 -22 20 -23 20 5 -23 c7 -25 1 -26 -102 -15 l-63 6 7 136 c3
75 9 151 12 169 5 25 3 32 -9 32 -9 0 -27 5 -41 11 -21 10 -24 17 -20 48 2 20
1 27 -2 16 -4 -11 -22 -66 -40 -123 -36 -110 -40 -151 -23 -232 9 -42 14 -50
34 -50 12 0 28 -6 34 -14 21 -25 -3 -53 -51 -61 -38 -7 -44 -5 -65 19 -13 15
-23 34 -23 43 0 9 -11 35 -25 59 -21 35 -24 50 -19 88 7 49 -14 124 -42 146
-18 16 -18 10 1 -26 32 -62 12 -144 -51 -214 l-36 -40 61 0 c48 0 65 -4 82
-21 11 -11 19 -28 17 -37 -3 -16 -31 -17 -323 -17 -232 0 -330 3 -356 13 -26
9 -49 10 -88 2 -51 -9 -55 -9 -77 15 -15 16 -34 25 -54 25 -35 0 -35 -2 -15
109 27 156 33 164 167 241 136 79 160 106 125 142 -39 39 -42 79 -6 98 26 15
34 13 68 -16 39 -32 56 -92 41 -138 -13 -41 -70 -95 -137 -131 l-52 -27 -3
-101 c-3 -95 -2 -101 20 -115 30 -20 104 -20 133 -1 21 15 22 21 20 145 -2
111 1 140 19 194 41 121 98 181 248 260 49 26 92 55 98 68 6 12 14 93 18 180
4 86 10 159 12 162 3 2 14 -1 24 -8 28 -17 30 -16 30 17 0 16 3 38 7 48 6 14
10 10 19 -22 6 -22 14 -39 18 -38z m-514 -457 c24 -15 7 -18 -20 -3 -14 7 -18
13 -10 13 8 0 22 -4 30 -10z"/>
<path d="M3940 2746 c0 -54 31 -102 85 -133 22 -13 43 -23 48 -23 13 0 7 92
-9 126 -18 37 -69 74 -103 74 -18 0 -21 -6 -21 -44z"/>
<path d="M3401 2623 c-47 -56 -48 -58 -56 -83 -5 -15 -10 -19 -15 -10 -8 13
-40 -68 -40 -102 0 -17 -2 -17 -28 -4 -16 8 -74 28 -130 45 -112 33 -136 44
-169 74 l-23 20 0 -25 c0 -14 11 -42 25 -62 l24 -36 -22 0 c-22 0 -22 -1 3
-20 14 -11 48 -29 75 -39 46 -18 47 -20 20 -21 -27 -1 -25 -4 30 -31 l60 -29
-40 0 -40 -1 29 -15 c20 -12 47 -15 93 -12 35 2 62 1 61 -2 -2 -4 -34 -34 -73
-68 -38 -33 -110 -100 -160 -147 -84 -81 -87 -84 -42 -60 39 23 46 24 40 9 -5
-14 -3 -16 13 -10 49 21 57 20 49 -4 l-7 -23 30 22 c36 25 42 26 42 4 0 -15 2
-15 19 1 17 16 20 16 23 1 1 -8 18 27 37 78 l34 94 52 17 c57 18 94 51 122
111 14 30 25 41 48 45 l29 5 -31 35 c-25 28 -37 34 -68 33 -36 -1 -37 0 -31
30 3 18 8 57 12 87 3 30 13 72 23 93 10 20 17 37 16 37 -2 0 -17 -17 -34 -37z"/>
<path d="M4614 2485 c-19 -15 -18 -16 9 -40 30 -26 68 -32 111 -15 35 13 33
24 -8 49 -39 25 -84 27 -112 6z"/>
<path d="M4256 2130 c-97 -11 -167 -34 -194 -63 -61 -65 -17 -286 70 -350 23
-17 34 -19 64 -11 21 5 46 21 57 36 l20 27 -21 101 c-16 82 -18 108 -9 138
l11 37 6 -60 c4 -33 16 -88 28 -123 27 -76 27 -76 1 -129 -78 -161 -271 -40
-287 180 -4 64 -6 67 -23 51 -9 -8 -30 -33 -44 -55 l-27 -38 28 -48 c36 -62
195 -221 258 -258 45 -26 51 -27 85 -15 20 7 116 18 214 24 156 10 180 13 192
30 8 10 25 24 37 30 25 12 65 114 55 140 -3 8 -51 46 -106 86 -93 65 -101 73
-101 104 0 43 -33 91 -92 133 -54 39 -101 46 -222 33z"/>
<path d="M2051 1664 c-22 -28 -29 -97 -12 -122 11 -19 49 15 59 53 9 32 -3 95
-18 95 -5 0 -18 -12 -29 -26z"/>
<path d="M1701 1439 c-18 -52 -13 -112 12 -149 32 -48 43 -47 62 4 21 55 15
96 -21 143 -31 41 -39 41 -53 2z"/>
<path d="M1967 1315 c-20 -14 -37 -28 -37 -30 0 -3 13 -11 30 -20 53 -27 134
-14 169 29 10 12 7 17 -18 30 -45 24 -100 20 -144 -9z"/>
</g>
</svg>
