<?xml version="1.0" standalone="no"?>
<!DOCTYPE svg PUBLIC "-//W3C//DTD SVG 20010904//EN"
 "http://www.w3.org/TR/2001/REC-SVG-20010904/DTD/svg10.dtd">
<svg version="1.0" xmlns="http://www.w3.org/2000/svg"
 width="349.000000pt" height="280.000000pt" viewBox="0 0 349.000000 280.000000"
 preserveAspectRatio="xMidYMid meet">

<g transform="translate(0.000000,280.000000) scale(0.100000,-0.100000)"
fill="#000000" stroke="none">
<path d="M850 2779 c-262 -44 -506 -230 -634 -486 -66 -132 -88 -228 -93 -403
-4 -117 -1 -176 11 -240 43 -231 163 -480 334 -695 74 -94 257 -280 364 -371
116 -99 137 -98 184 6 109 236 95 454 -36 564 -44 37 -67 47 -212 101 -145 53
-192 81 -231 135 -37 52 -77 161 -77 210 0 43 14 57 107 104 74 37 118 79 147
139 43 92 82 115 241 146 128 26 186 51 220 95 30 40 45 112 38 184 l-6 53 29
-7 c137 -32 307 -148 392 -268 30 -42 32 -47 15 -53 -181 -65 -326 -189 -402
-345 -49 -98 -65 -177 -58 -275 10 -134 77 -242 182 -294 59 -29 71 -31 139
-27 55 4 85 11 118 31 106 62 193 208 230 386 26 123 21 292 -11 391 -11 36
-21 67 -21 69 0 2 57 1 128 -1 92 -4 142 -11 183 -25 133 -49 213 -38 394 53
l109 56 16 -23 c41 -65 106 -95 178 -83 l38 6 22 -89 c12 -49 22 -104 22 -123
0 -117 -178 -215 -326 -180 -49 12 -56 11 -74 -5 -41 -37 -18 -78 55 -97 28
-7 52 -13 53 -14 2 -1 -15 -26 -39 -56 -98 -124 -117 -220 -75 -389 46 -189
33 -263 -65 -354 -100 -94 -361 -266 -597 -394 l-133 -73 -157 88 c-86 47
-199 113 -249 146 l-93 60 53 40 c122 95 217 203 281 320 41 73 46 112 17 128
-35 18 -60 12 -79 -20 -9 -16 -33 -57 -51 -90 -60 -104 -173 -216 -323 -319
-66 -44 -65 -68 5 -119 116 -85 361 -230 519 -308 l78 -38 67 33 c38 18 131
69 208 113 746 426 1201 941 1301 1475 23 124 15 367 -15 472 -148 504 -639
783 -1105 627 -56 -19 -75 -21 -102 -13 -30 9 -42 6 -106 -27 -94 -48 -118
-75 -118 -130 0 -34 6 -48 29 -70 42 -40 88 -38 173 9 68 36 98 66 98 96 0 19
28 33 107 53 200 51 406 16 585 -100 152 -98 262 -244 326 -430 35 -101 45
-186 39 -328 -10 -260 -101 -489 -298 -751 -72 -96 -235 -275 -250 -275 -5 0
-9 15 -9 33 0 17 -11 75 -25 127 -40 153 -31 229 36 326 45 66 134 150 212
202 69 45 101 79 132 141 26 52 16 179 -25 306 -64 199 -88 225 -200 225 -88
0 -122 -11 -283 -86 -164 -78 -212 -87 -308 -56 -103 34 -193 45 -309 39
l-105 -6 -50 70 c-105 150 -286 274 -459 314 -94 22 -142 20 -161 -9 -14 -21
-14 -29 1 -86 22 -87 15 -147 -23 -180 -23 -21 -54 -31 -144 -49 -181 -36
-244 -73 -296 -176 -35 -70 -47 -81 -140 -132 -119 -67 -143 -91 -143 -147 0
-69 19 -143 57 -226 60 -132 138 -190 355 -265 154 -53 207 -106 222 -220 8
-56 -13 -178 -43 -247 l-17 -41 -90 80 c-337 303 -552 649 -604 975 -18 110
-8 312 20 407 126 438 549 682 959 553 43 -13 56 -23 67 -47 7 -17 21 -37 31
-46 28 -24 112 -70 145 -80 59 -17 128 33 128 94 0 54 -25 82 -111 127 -73 38
-86 42 -118 33 -28 -7 -49 -4 -91 10 -127 44 -281 57 -410 36z m885 -940 c16
-44 19 -81 20 -194 0 -151 -17 -229 -71 -338 -89 -175 -247 -206 -345 -68 -99
138 -51 365 108 513 68 63 227 152 258 144 6 -1 19 -27 30 -57z"/>
<path d="M796 1808 c-9 -12 -16 -29 -16 -38 0 -29 30 -60 59 -60 41 0 64 22
64 60 0 58 -75 84 -107 38z"/>
<path d="M2051 1714 c-35 -30 -54 -86 -43 -129 7 -25 14 -30 38 -30 27 0 29 2
32 47 2 25 9 52 17 58 18 15 78 5 95 -15 27 -33 85 -2 63 33 -39 63 -147 83
-202 36z"/>
</g>
</svg>
